<?xml version="1.0" ?><!-- Uploaded to: SVG Repo, www.svgrepo.com, Generator: SVG Repo Mixer Tools -->
<svg fill="#000000" width="800px" height="800px" viewBox="0 0 32 32" xmlns="http://www.w3.org/2000/svg" id="Layer_1" data-name="Layer 1"><path d="M6.97,30.75H25.03c.41,0,.75-.34,.75-.75V3.89c0-.41-.34-.75-.75-.75h-2.56v-1.14c0-.41-.34-.75-.75-.75s-.75,.34-.75,.75v1.14h-4.22v-1.14c0-.41-.34-.75-.75-.75s-.75,.34-.75,.75v1.14h-4.22v-1.14c0-.41-.34-.75-.75-.75s-.75,.34-.75,.75v1.14h-2.56c-.41,0-.75,.34-.75,.75V30c0,.41,.34,.75,.75,.75Zm.75-26.11h1.81v1.14c0,.41,.34,.75,.75,.75s.75-.34,.75-.75v-1.14h4.22v1.14c0,.41,.34,.75,.75,.75s.75-.34,.75-.75v-1.14h4.22v1.14c0,.41,.34,.75,.75,.75s.75-.34,.75-.75v-1.14h1.81V29.25H7.72V4.64Z"/><path d="M16.86,9.66h-6.57c-.41,0-.75,.34-.75,.75s.34,.75,.75,.75h6.57c.41,0,.75-.34,.75-.75s-.34-.75-.75-.75Z"/><path d="M16.86,16.19h-6.57c-.41,0-.75,.34-.75,.75s.34,.75,.75,.75h6.57c.41,0,.75-.34,.75-.75s-.34-.75-.75-.75Z"/><path d="M16.86,22.73h-6.57c-.41,0-.75,.34-.75,.75s.34,.75,.75,.75h6.57c.41,0,.75-.34,.75-.75s-.34-.75-.75-.75Z"/><path d="M10.28,14.27h3.61c.41,0,.75-.34,.75-.75s-.34-.75-.75-.75h-3.61c-.41,0-.75,.34-.75,.75s.34,.75,.75,.75Z"/><path d="M10.28,21h3.61c.41,0,.75-.34,.75-.75s-.34-.75-.75-.75h-3.61c-.41,0-.75,.34-.75,.75s.34,.75,.75,.75Z"/><path d="M13.89,25.79h-3.61c-.41,0-.75,.34-.75,.75s.34,.75,.75,.75h3.61c.41,0,.75-.34,.75-.75s-.34-.75-.75-.75Z"/></svg>